<svg xmlns="http://www.w3.org/2000/svg" width="1750" height="560" viewBox="0 0 1750 560"><rect width="100%" height="100%" fill="white"/>
<text x="875.0" y="26" text-anchor="middle" font-size="18">Paper-reference Fig.13 TempGNN with and without DDTC/OATS</text>
<line x1="70" y1="445" x2="1730" y2="445" stroke="#333"/>
<line x1="70" y1="45" x2="70" y2="445" stroke="#333"/>
<line x1="70" y1="445.0" x2="1730" y2="445.0" stroke="#eee"/>
<text x="62" y="449.0" text-anchor="end" font-size="11">0.0</text>
<line x1="70" y1="365.0" x2="1730" y2="365.0" stroke="#eee"/>
<text x="62" y="369.0" text-anchor="end" font-size="11">0.9</text>
<line x1="70" y1="285.0" x2="1730" y2="285.0" stroke="#eee"/>
<text x="62" y="289.0" text-anchor="end" font-size="11">1.8</text>
<line x1="70" y1="205.0" x2="1730" y2="205.0" stroke="#eee"/>
<text x="62" y="209.0" text-anchor="end" font-size="11">2.7</text>
<line x1="70" y1="125.0" x2="1730" y2="125.0" stroke="#eee"/>
<text x="62" y="129.0" text-anchor="end" font-size="11">3.6</text>
<line x1="70" y1="45.0" x2="1730" y2="45.0" stroke="#eee"/>
<text x="62" y="49.0" text-anchor="end" font-size="11">4.5</text>
<text x="103.0" y="542" text-anchor="end" font-size="10" transform="rotate(-55 103.0,542)">JODIE-WK</text>
<rect x="78.2" y="357.1" width="14.0" height="87.9" fill="#4c78a8"><title>JODIE-WK TempGNN: 1</title></rect>
<rect x="94.8" y="172.5" width="14.0" height="272.5" fill="#f58518"><title>JODIE-WK WO/DDTC: 3.1</title></rect>
<rect x="111.2" y="291.2" width="14.0" height="153.8" fill="#54a24b"><title>JODIE-WK WO/OATS: 1.75</title></rect>
<text x="169.0" y="542" text-anchor="end" font-size="10" transform="rotate(-55 169.0,542)">JODIE-MC</text>
<rect x="144.2" y="357.1" width="14.0" height="87.9" fill="#4c78a8"><title>JODIE-MC TempGNN: 1</title></rect>
<rect x="160.8" y="185.7" width="14.0" height="259.3" fill="#f58518"><title>JODIE-MC WO/DDTC: 2.95</title></rect>
<rect x="177.2" y="297.3" width="14.0" height="147.7" fill="#54a24b"><title>JODIE-MC WO/OATS: 1.68</title></rect>
<text x="235.0" y="542" text-anchor="end" font-size="10" transform="rotate(-55 235.0,542)">JODIE-RT</text>
<rect x="210.2" y="357.1" width="14.0" height="87.9" fill="#4c78a8"><title>JODIE-RT TempGNN: 1</title></rect>
<rect x="226.8" y="159.3" width="14.0" height="285.7" fill="#f58518"><title>JODIE-RT WO/DDTC: 3.25</title></rect>
<rect x="243.2" y="285.0" width="14.0" height="160.0" fill="#54a24b"><title>JODIE-RT WO/OATS: 1.82</title></rect>
<text x="301.0" y="542" text-anchor="end" font-size="10" transform="rotate(-55 301.0,542)">JODIE-LM</text>
<rect x="276.2" y="357.1" width="14.0" height="87.9" fill="#4c78a8"><title>JODIE-LM TempGNN: 1</title></rect>
<rect x="292.8" y="212.0" width="14.0" height="233.0" fill="#f58518"><title>JODIE-LM WO/DDTC: 2.65</title></rect>
<rect x="309.2" y="308.7" width="14.0" height="136.3" fill="#54a24b"><title>JODIE-LM WO/OATS: 1.55</title></rect>
<text x="367.0" y="542" text-anchor="end" font-size="10" transform="rotate(-55 367.0,542)">JODIE-WT</text>
<rect x="342.2" y="357.1" width="14.0" height="87.9" fill="#4c78a8"><title>JODIE-WT TempGNN: 1</title></rect>
<rect x="358.8" y="124.1" width="14.0" height="320.9" fill="#f58518"><title>JODIE-WT WO/DDTC: 3.65</title></rect>
<rect x="375.2" y="273.6" width="14.0" height="171.4" fill="#54a24b"><title>JODIE-WT WO/OATS: 1.95</title></rect>
<text x="433.0" y="542" text-anchor="end" font-size="10" transform="rotate(-55 433.0,542)">JODIE-GT</text>
<rect x="408.2" y="357.1" width="14.0" height="87.9" fill="#4c78a8"><title>JODIE-GT TempGNN: 1</title></rect>
<rect x="424.8" y="71.4" width="14.0" height="373.6" fill="#f58518"><title>JODIE-GT WO/DDTC: 4.25</title></rect>
<rect x="441.2" y="229.6" width="14.0" height="215.4" fill="#54a24b"><title>JODIE-GT WO/OATS: 2.45</title></rect>
<text x="499.0" y="542" text-anchor="end" font-size="10" transform="rotate(-55 499.0,542)">TGN-WK</text>
<rect x="474.2" y="357.1" width="14.0" height="87.9" fill="#4c78a8"><title>TGN-WK TempGNN: 1</title></rect>
<rect x="490.8" y="163.7" width="14.0" height="281.3" fill="#f58518"><title>TGN-WK WO/DDTC: 3.2</title></rect>
<rect x="507.2" y="286.8" width="14.0" height="158.2" fill="#54a24b"><title>TGN-WK WO/OATS: 1.8</title></rect>
<text x="565.0" y="542" text-anchor="end" font-size="10" transform="rotate(-55 565.0,542)">TGN-MC</text>
<rect x="540.2" y="357.1" width="14.0" height="87.9" fill="#4c78a8"><title>TGN-MC TempGNN: 1</title></rect>
<rect x="556.8" y="176.9" width="14.0" height="268.1" fill="#f58518"><title>TGN-MC WO/DDTC: 3.05</title></rect>
<rect x="573.2" y="291.2" width="14.0" height="153.8" fill="#54a24b"><title>TGN-MC WO/OATS: 1.75</title></rect>
<text x="631.0" y="542" text-anchor="end" font-size="10" transform="rotate(-55 631.0,542)">TGN-RT</text>
<rect x="606.2" y="357.1" width="14.0" height="87.9" fill="#4c78a8"><title>TGN-RT TempGNN: 1</title></rect>
<rect x="622.8" y="150.5" width="14.0" height="294.5" fill="#f58518"><title>TGN-RT WO/DDTC: 3.35</title></rect>
<rect x="639.2" y="279.7" width="14.0" height="165.3" fill="#54a24b"><title>TGN-RT WO/OATS: 1.88</title></rect>
<text x="697.0" y="542" text-anchor="end" font-size="10" transform="rotate(-55 697.0,542)">TGN-LM</text>
<rect x="672.2" y="357.1" width="14.0" height="87.9" fill="#4c78a8"><title>TGN-LM TempGNN: 1</title></rect>
<rect x="688.8" y="203.2" width="14.0" height="241.8" fill="#f58518"><title>TGN-LM WO/DDTC: 2.75</title></rect>
<rect x="705.2" y="302.6" width="14.0" height="142.4" fill="#54a24b"><title>TGN-LM WO/OATS: 1.62</title></rect>
<text x="763.0" y="542" text-anchor="end" font-size="10" transform="rotate(-55 763.0,542)">TGN-WT</text>
<rect x="738.2" y="357.1" width="14.0" height="87.9" fill="#4c78a8"><title>TGN-WT TempGNN: 1</title></rect>
<rect x="754.8" y="106.5" width="14.0" height="338.5" fill="#f58518"><title>TGN-WT WO/DDTC: 3.85</title></rect>
<rect x="771.2" y="264.8" width="14.0" height="180.2" fill="#54a24b"><title>TGN-WT WO/OATS: 2.05</title></rect>
<text x="829.0" y="542" text-anchor="end" font-size="10" transform="rotate(-55 829.0,542)">TGN-GT</text>
<rect x="804.2" y="357.1" width="14.0" height="87.9" fill="#4c78a8"><title>TGN-GT TempGNN: 1</title></rect>
<rect x="820.8" y="53.8" width="14.0" height="391.2" fill="#f58518"><title>TGN-GT WO/DDTC: 4.45</title></rect>
<rect x="837.2" y="220.8" width="14.0" height="224.2" fill="#54a24b"><title>TGN-GT WO/OATS: 2.55</title></rect>
<text x="895.0" y="542" text-anchor="end" font-size="10" transform="rotate(-55 895.0,542)">TGAT-WK</text>
<rect x="870.2" y="357.1" width="14.0" height="87.9" fill="#4c78a8"><title>TGAT-WK TempGNN: 1</title></rect>
<rect x="886.8" y="256.0" width="14.0" height="189.0" fill="#f58518"><title>TGAT-WK WO/DDTC: 2.15</title></rect>
<rect x="903.2" y="346.5" width="14.0" height="98.5" fill="#54a24b"><title>TGAT-WK WO/OATS: 1.12</title></rect>
<text x="961.0" y="542" text-anchor="end" font-size="10" transform="rotate(-55 961.0,542)">TGAT-MC</text>
<rect x="936.2" y="357.1" width="14.0" height="87.9" fill="#4c78a8"><title>TGAT-MC TempGNN: 1</title></rect>
<rect x="952.8" y="264.8" width="14.0" height="180.2" fill="#f58518"><title>TGAT-MC WO/DDTC: 2.05</title></rect>
<rect x="969.2" y="350.1" width="14.0" height="94.9" fill="#54a24b"><title>TGAT-MC WO/OATS: 1.08</title></rect>
<text x="1027.0" y="542" text-anchor="end" font-size="10" transform="rotate(-55 1027.0,542)">TGAT-RT</text>
<rect x="1002.2" y="357.1" width="14.0" height="87.9" fill="#4c78a8"><title>TGAT-RT TempGNN: 1</title></rect>
<rect x="1018.8" y="247.2" width="14.0" height="197.8" fill="#f58518"><title>TGAT-RT WO/DDTC: 2.25</title></rect>
<rect x="1035.2" y="343.9" width="14.0" height="101.1" fill="#54a24b"><title>TGAT-RT WO/OATS: 1.15</title></rect>
<text x="1093.0" y="542" text-anchor="end" font-size="10" transform="rotate(-55 1093.0,542)">TGAT-LM</text>
<rect x="1068.2" y="357.1" width="14.0" height="87.9" fill="#4c78a8"><title>TGAT-LM TempGNN: 1</title></rect>
<rect x="1084.8" y="282.4" width="14.0" height="162.6" fill="#f58518"><title>TGAT-LM WO/DDTC: 1.85</title></rect>
<rect x="1101.2" y="352.7" width="14.0" height="92.3" fill="#54a24b"><title>TGAT-LM WO/OATS: 1.05</title></rect>
<text x="1159.0" y="542" text-anchor="end" font-size="10" transform="rotate(-55 1159.0,542)">TGAT-WT</text>
<rect x="1134.2" y="357.1" width="14.0" height="87.9" fill="#4c78a8"><title>TGAT-WT TempGNN: 1</title></rect>
<rect x="1150.8" y="229.6" width="14.0" height="215.4" fill="#f58518"><title>TGAT-WT WO/DDTC: 2.45</title></rect>
<rect x="1167.2" y="341.3" width="14.0" height="103.7" fill="#54a24b"><title>TGAT-WT WO/OATS: 1.18</title></rect>
<text x="1225.0" y="542" text-anchor="end" font-size="10" transform="rotate(-55 1225.0,542)">TGAT-GT</text>
<rect x="1200.2" y="357.1" width="14.0" height="87.9" fill="#4c78a8"><title>TGAT-GT TempGNN: 1</title></rect>
<rect x="1216.8" y="212.0" width="14.0" height="233.0" fill="#f58518"><title>TGAT-GT WO/DDTC: 2.65</title></rect>
<rect x="1233.2" y="335.1" width="14.0" height="109.9" fill="#54a24b"><title>TGAT-GT WO/OATS: 1.25</title></rect>
<text x="1291.0" y="542" text-anchor="end" font-size="10" transform="rotate(-55 1291.0,542)">APAN-WK</text>
<rect x="1266.2" y="357.1" width="14.0" height="87.9" fill="#4c78a8"><title>APAN-WK TempGNN: 1</title></rect>
<rect x="1282.8" y="159.3" width="14.0" height="285.7" fill="#f58518"><title>APAN-WK WO/DDTC: 3.25</title></rect>
<rect x="1299.2" y="282.4" width="14.0" height="162.6" fill="#54a24b"><title>APAN-WK WO/OATS: 1.85</title></rect>
<text x="1357.0" y="542" text-anchor="end" font-size="10" transform="rotate(-55 1357.0,542)">APAN-MC</text>
<rect x="1332.2" y="357.1" width="14.0" height="87.9" fill="#4c78a8"><title>APAN-MC TempGNN: 1</title></rect>
<rect x="1348.8" y="170.7" width="14.0" height="274.3" fill="#f58518"><title>APAN-MC WO/DDTC: 3.12</title></rect>
<rect x="1365.2" y="288.5" width="14.0" height="156.5" fill="#54a24b"><title>APAN-MC WO/OATS: 1.78</title></rect>
<text x="1423.0" y="542" text-anchor="end" font-size="10" transform="rotate(-55 1423.0,542)">APAN-RT</text>
<rect x="1398.2" y="357.1" width="14.0" height="87.9" fill="#4c78a8"><title>APAN-RT TempGNN: 1</title></rect>
<rect x="1414.8" y="144.3" width="14.0" height="300.7" fill="#f58518"><title>APAN-RT WO/DDTC: 3.42</title></rect>
<rect x="1431.2" y="276.2" width="14.0" height="168.8" fill="#54a24b"><title>APAN-RT WO/OATS: 1.92</title></rect>
<text x="1489.0" y="542" text-anchor="end" font-size="10" transform="rotate(-55 1489.0,542)">APAN-LM</text>
<rect x="1464.2" y="357.1" width="14.0" height="87.9" fill="#4c78a8"><title>APAN-LM TempGNN: 1</title></rect>
<rect x="1480.8" y="197.1" width="14.0" height="247.9" fill="#f58518"><title>APAN-LM WO/DDTC: 2.82</title></rect>
<rect x="1497.2" y="299.9" width="14.0" height="145.1" fill="#54a24b"><title>APAN-LM WO/OATS: 1.65</title></rect>
<text x="1555.0" y="542" text-anchor="end" font-size="10" transform="rotate(-55 1555.0,542)">APAN-WT</text>
<rect x="1530.2" y="357.1" width="14.0" height="87.9" fill="#4c78a8"><title>APAN-WT TempGNN: 1</title></rect>
<rect x="1546.8" y="97.7" width="14.0" height="347.3" fill="#f58518"><title>APAN-WT WO/DDTC: 3.95</title></rect>
<rect x="1563.2" y="258.6" width="14.0" height="186.4" fill="#54a24b"><title>APAN-WT WO/OATS: 2.12</title></rect>
<text x="1621.0" y="542" text-anchor="end" font-size="10" transform="rotate(-55 1621.0,542)">APAN-GT</text>
<rect x="1596.2" y="357.1" width="14.0" height="87.9" fill="#4c78a8"><title>APAN-GT TempGNN: 1</title></rect>
<rect x="1612.8" y="45.0" width="14.0" height="400.0" fill="#f58518"><title>APAN-GT WO/DDTC: 4.55</title></rect>
<rect x="1629.2" y="212.0" width="14.0" height="233.0" fill="#54a24b"><title>APAN-GT WO/OATS: 2.65</title></rect>
<text x="1687.0" y="542" text-anchor="end" font-size="10" transform="rotate(-55 1687.0,542)">AVG</text>
<rect x="1662.2" y="357.1" width="14.0" height="87.9" fill="#4c78a8"><title>AVG TempGNN: 1</title></rect>
<rect x="1678.8" y="174.2" width="14.0" height="270.8" fill="#f58518"><title>AVG WO/DDTC: 3.08</title></rect>
<rect x="1695.2" y="289.4" width="14.0" height="155.6" fill="#54a24b"><title>AVG WO/OATS: 1.77</title></rect>
<rect x="1130.0" y="38.0" width="12" height="12" fill="#4c78a8"/>
<text x="1148.0" y="48.0" font-size="12">TempGNN</text>
<rect x="1320.0" y="38.0" width="12" height="12" fill="#f58518"/>
<text x="1338.0" y="48.0" font-size="12">WO/DDTC</text>
<rect x="1510.0" y="38.0" width="12" height="12" fill="#54a24b"/>
<text x="1528.0" y="48.0" font-size="12">WO/OATS</text>
</svg>
