<svg xmlns="http://www.w3.org/2000/svg" width="1750" height="560" viewBox="0 0 1750 560"><rect width="100%" height="100%" fill="white"/>
<text x="875.0" y="26" text-anchor="middle" font-size="18">Paper-reference Fig.11 speedup normalized to MATG</text>
<line x1="70" y1="445" x2="1730" y2="445" stroke="#333"/>
<line x1="70" y1="45" x2="70" y2="445" stroke="#333"/>
<line x1="70" y1="445.0" x2="1730" y2="445.0" stroke="#eee"/>
<text x="62" y="449.0" text-anchor="end" font-size="11">0.0</text>
<line x1="70" y1="365.0" x2="1730" y2="365.0" stroke="#eee"/>
<text x="62" y="369.0" text-anchor="end" font-size="11">2.2</text>
<line x1="70" y1="285.0" x2="1730" y2="285.0" stroke="#eee"/>
<text x="62" y="289.0" text-anchor="end" font-size="11">4.3</text>
<line x1="70" y1="205.0" x2="1730" y2="205.0" stroke="#eee"/>
<text x="62" y="209.0" text-anchor="end" font-size="11">6.5</text>
<line x1="70" y1="125.0" x2="1730" y2="125.0" stroke="#eee"/>
<text x="62" y="129.0" text-anchor="end" font-size="11">8.7</text>
<line x1="70" y1="45.0" x2="1730" y2="45.0" stroke="#eee"/>
<text x="62" y="49.0" text-anchor="end" font-size="11">10.8</text>
<text x="103.0" y="542" text-anchor="end" font-size="10" transform="rotate(-55 103.0,542)">JODIE-WK</text>
<rect x="76.6" y="408.1" width="11.2" height="36.9" fill="#4c78a8"><title>JODIE-WK MATG: 1</title></rect>
<rect x="89.8" y="392.6" width="11.2" height="52.4" fill="#f58518"><title>JODIE-WK ViTeGNN: 1.42</title></rect>
<rect x="103.0" y="373.0" width="11.2" height="72.0" fill="#54a24b"><title>JODIE-WK RTGA: 1.95</title></rect>
<rect x="116.2" y="155.6" width="11.2" height="289.4" fill="#b279a2"><title>JODIE-WK TempGNN: 7.839</title></rect>
<text x="169.0" y="542" text-anchor="end" font-size="10" transform="rotate(-55 169.0,542)">JODIE-MC</text>
<rect x="142.6" y="408.1" width="11.2" height="36.9" fill="#4c78a8"><title>JODIE-MC MATG: 1</title></rect>
<rect x="155.8" y="394.1" width="11.2" height="50.9" fill="#f58518"><title>JODIE-MC ViTeGNN: 1.379</title></rect>
<rect x="169.0" y="375.7" width="11.2" height="69.3" fill="#54a24b"><title>JODIE-MC RTGA: 1.877</title></rect>
<rect x="182.2" y="171.4" width="11.2" height="273.6" fill="#b279a2"><title>JODIE-MC TempGNN: 7.41</title></rect>
<text x="235.0" y="542" text-anchor="end" font-size="10" transform="rotate(-55 235.0,542)">JODIE-RT</text>
<rect x="208.6" y="408.1" width="11.2" height="36.9" fill="#4c78a8"><title>JODIE-RT MATG: 1</title></rect>
<rect x="221.8" y="391.6" width="11.2" height="53.4" fill="#f58518"><title>JODIE-RT ViTeGNN: 1.447</title></rect>
<rect x="235.0" y="370.5" width="11.2" height="74.5" fill="#54a24b"><title>JODIE-RT RTGA: 2.018</title></rect>
<rect x="248.2" y="146.3" width="11.2" height="298.7" fill="#b279a2"><title>JODIE-RT TempGNN: 8.09</title></rect>
<text x="301.0" y="542" text-anchor="end" font-size="10" transform="rotate(-55 301.0,542)">JODIE-LM</text>
<rect x="274.6" y="408.1" width="11.2" height="36.9" fill="#4c78a8"><title>JODIE-LM MATG: 1</title></rect>
<rect x="287.8" y="395.3" width="11.2" height="49.7" fill="#f58518"><title>JODIE-LM ViTeGNN: 1.347</title></rect>
<rect x="301.0" y="362.1" width="11.2" height="82.9" fill="#54a24b"><title>JODIE-LM RTGA: 2.246</title></rect>
<rect x="314.2" y="218.3" width="11.2" height="226.7" fill="#b279a2"><title>JODIE-LM TempGNN: 6.141</title></rect>
<text x="367.0" y="542" text-anchor="end" font-size="10" transform="rotate(-55 367.0,542)">JODIE-WT</text>
<rect x="340.6" y="408.1" width="11.2" height="36.9" fill="#4c78a8"><title>JODIE-WT MATG: 1</title></rect>
<rect x="353.8" y="389.0" width="11.2" height="56.0" fill="#f58518"><title>JODIE-WT ViTeGNN: 1.516</title></rect>
<rect x="367.0" y="365.8" width="11.2" height="79.2" fill="#54a24b"><title>JODIE-WT RTGA: 2.146</title></rect>
<rect x="380.2" y="126.1" width="11.2" height="318.9" fill="#b279a2"><title>JODIE-WT TempGNN: 8.638</title></rect>
<text x="433.0" y="542" text-anchor="end" font-size="10" transform="rotate(-55 433.0,542)">JODIE-GT</text>
<rect x="406.6" y="408.1" width="11.2" height="36.9" fill="#4c78a8"><title>JODIE-GT MATG: 1</title></rect>
<rect x="419.8" y="386.0" width="11.2" height="59.0" fill="#f58518"><title>JODIE-GT ViTeGNN: 1.598</title></rect>
<rect x="433.0" y="367.6" width="11.2" height="77.4" fill="#54a24b"><title>JODIE-GT RTGA: 2.096</title></rect>
<rect x="446.2" y="67.1" width="11.2" height="377.9" fill="#b279a2"><title>JODIE-GT TempGNN: 10.24</title></rect>
<text x="499.0" y="542" text-anchor="end" font-size="10" transform="rotate(-55 499.0,542)">TGN-WK</text>
<rect x="472.6" y="408.1" width="11.2" height="36.9" fill="#4c78a8"><title>TGN-WK MATG: 1</title></rect>
<rect x="485.8" y="391.9" width="11.2" height="53.1" fill="#f58518"><title>TGN-WK ViTeGNN: 1.438</title></rect>
<rect x="499.0" y="372.0" width="11.2" height="73.0" fill="#54a24b"><title>TGN-WK RTGA: 1.977</title></rect>
<rect x="512.2" y="153.1" width="11.2" height="291.9" fill="#b279a2"><title>TGN-WK TempGNN: 7.908</title></rect>
<text x="565.0" y="542" text-anchor="end" font-size="10" transform="rotate(-55 565.0,542)">TGN-MC</text>
<rect x="538.6" y="408.1" width="11.2" height="36.9" fill="#4c78a8"><title>TGN-MC MATG: 1</title></rect>
<rect x="551.8" y="393.4" width="11.2" height="51.6" fill="#f58518"><title>TGN-MC ViTeGNN: 1.397</title></rect>
<rect x="565.0" y="374.2" width="11.2" height="70.8" fill="#54a24b"><title>TGN-MC RTGA: 1.918</title></rect>
<rect x="578.2" y="166.5" width="11.2" height="278.5" fill="#b279a2"><title>TGN-MC TempGNN: 7.543</title></rect>
<text x="631.0" y="542" text-anchor="end" font-size="10" transform="rotate(-55 631.0,542)">TGN-RT</text>
<rect x="604.6" y="408.1" width="11.2" height="36.9" fill="#4c78a8"><title>TGN-RT MATG: 1</title></rect>
<rect x="617.8" y="390.7" width="11.2" height="54.3" fill="#f58518"><title>TGN-RT ViTeGNN: 1.47</title></rect>
<rect x="631.0" y="369.5" width="11.2" height="75.5" fill="#54a24b"><title>TGN-RT RTGA: 2.045</title></rect>
<rect x="644.2" y="140.7" width="11.2" height="304.3" fill="#b279a2"><title>TGN-RT TempGNN: 8.241</title></rect>
<text x="697.0" y="542" text-anchor="end" font-size="10" transform="rotate(-55 697.0,542)">TGN-LM</text>
<rect x="670.6" y="408.1" width="11.2" height="36.9" fill="#4c78a8"><title>TGN-LM MATG: 1</title></rect>
<rect x="683.8" y="394.4" width="11.2" height="50.6" fill="#f58518"><title>TGN-LM ViTeGNN: 1.37</title></rect>
<rect x="697.0" y="360.2" width="11.2" height="84.8" fill="#54a24b"><title>TGN-LM RTGA: 2.297</title></rect>
<rect x="710.2" y="210.9" width="11.2" height="234.1" fill="#b279a2"><title>TGN-LM TempGNN: 6.342</title></rect>
<text x="763.0" y="542" text-anchor="end" font-size="10" transform="rotate(-55 763.0,542)">TGN-WT</text>
<rect x="736.6" y="408.1" width="11.2" height="36.9" fill="#4c78a8"><title>TGN-WT MATG: 1</title></rect>
<rect x="749.8" y="388.2" width="11.2" height="56.8" fill="#f58518"><title>TGN-WT ViTeGNN: 1.539</title></rect>
<rect x="763.0" y="363.9" width="11.2" height="81.1" fill="#54a24b"><title>TGN-WT RTGA: 2.196</title></rect>
<rect x="776.2" y="115.0" width="11.2" height="330.0" fill="#b279a2"><title>TGN-WT TempGNN: 8.94</title></rect>
<text x="829.0" y="542" text-anchor="end" font-size="10" transform="rotate(-55 829.0,542)">TGN-GT</text>
<rect x="802.6" y="408.1" width="11.2" height="36.9" fill="#4c78a8"><title>TGN-GT MATG: 1</title></rect>
<rect x="815.8" y="384.1" width="11.2" height="60.9" fill="#f58518"><title>TGN-GT ViTeGNN: 1.648</title></rect>
<rect x="829.0" y="365.8" width="11.2" height="79.2" fill="#54a24b"><title>TGN-GT RTGA: 2.146</title></rect>
<rect x="842.2" y="52.2" width="11.2" height="392.8" fill="#b279a2"><title>TGN-GT TempGNN: 10.64</title></rect>
<text x="895.0" y="542" text-anchor="end" font-size="10" transform="rotate(-55 895.0,542)">TGAT-WK</text>
<rect x="868.6" y="408.1" width="11.2" height="36.9" fill="#4c78a8"><title>TGAT-WK MATG: 1</title></rect>
<rect x="881.8" y="395.3" width="11.2" height="49.7" fill="#f58518"><title>TGAT-WK ViTeGNN: 1.347</title></rect>
<rect x="895.0" y="376.7" width="11.2" height="68.3" fill="#54a24b"><title>TGAT-WK RTGA: 1.849</title></rect>
<rect x="908.2" y="214.6" width="11.2" height="230.4" fill="#b279a2"><title>TGAT-WK TempGNN: 6.241</title></rect>
<text x="961.0" y="542" text-anchor="end" font-size="10" transform="rotate(-55 961.0,542)">TGAT-MC</text>
<rect x="934.6" y="408.1" width="11.2" height="36.9" fill="#4c78a8"><title>TGAT-MC MATG: 1</title></rect>
<rect x="947.8" y="396.3" width="11.2" height="48.7" fill="#f58518"><title>TGAT-MC ViTeGNN: 1.319</title></rect>
<rect x="961.0" y="378.6" width="11.2" height="66.4" fill="#54a24b"><title>TGAT-MC RTGA: 1.799</title></rect>
<rect x="974.2" y="225.5" width="11.2" height="219.5" fill="#b279a2"><title>TGAT-MC TempGNN: 5.944</title></rect>
<text x="1027.0" y="542" text-anchor="end" font-size="10" transform="rotate(-55 1027.0,542)">TGAT-RT</text>
<rect x="1000.6" y="408.1" width="11.2" height="36.9" fill="#4c78a8"><title>TGAT-RT MATG: 1</title></rect>
<rect x="1013.8" y="394.1" width="11.2" height="50.9" fill="#f58518"><title>TGAT-RT ViTeGNN: 1.379</title></rect>
<rect x="1027.0" y="374.9" width="11.2" height="70.1" fill="#54a24b"><title>TGAT-RT RTGA: 1.899</title></rect>
<rect x="1040.2" y="207.2" width="11.2" height="237.8" fill="#b279a2"><title>TGAT-RT TempGNN: 6.442</title></rect>
<text x="1093.0" y="542" text-anchor="end" font-size="10" transform="rotate(-55 1093.0,542)">TGAT-LM</text>
<rect x="1066.6" y="408.1" width="11.2" height="36.9" fill="#4c78a8"><title>TGAT-LM MATG: 1</title></rect>
<rect x="1079.8" y="397.8" width="11.2" height="47.2" fill="#f58518"><title>TGAT-LM ViTeGNN: 1.278</title></rect>
<rect x="1093.0" y="365.8" width="11.2" height="79.2" fill="#54a24b"><title>TGAT-LM RTGA: 2.146</title></rect>
<rect x="1106.2" y="255.0" width="11.2" height="190.0" fill="#b279a2"><title>TGAT-LM TempGNN: 5.146</title></rect>
<text x="1159.0" y="542" text-anchor="end" font-size="10" transform="rotate(-55 1159.0,542)">TGAT-WT</text>
<rect x="1132.6" y="408.1" width="11.2" height="36.9" fill="#4c78a8"><title>TGAT-WT MATG: 1</title></rect>
<rect x="1145.8" y="392.6" width="11.2" height="52.4" fill="#f58518"><title>TGAT-WT ViTeGNN: 1.42</title></rect>
<rect x="1159.0" y="373.0" width="11.2" height="72.0" fill="#54a24b"><title>TGAT-WT RTGA: 1.95</title></rect>
<rect x="1172.2" y="192.5" width="11.2" height="252.5" fill="#b279a2"><title>TGAT-WT TempGNN: 6.839</title></rect>
<text x="1225.0" y="542" text-anchor="end" font-size="10" transform="rotate(-55 1225.0,542)">TGAT-GT</text>
<rect x="1198.6" y="408.1" width="11.2" height="36.9" fill="#4c78a8"><title>TGAT-GT MATG: 1</title></rect>
<rect x="1211.8" y="390.4" width="11.2" height="54.6" fill="#f58518"><title>TGAT-GT ViTeGNN: 1.479</title></rect>
<rect x="1225.0" y="371.3" width="11.2" height="73.7" fill="#54a24b"><title>TGAT-GT RTGA: 1.995</title></rect>
<rect x="1238.2" y="166.5" width="11.2" height="278.5" fill="#b279a2"><title>TGAT-GT TempGNN: 7.543</title></rect>
<text x="1291.0" y="542" text-anchor="end" font-size="10" transform="rotate(-55 1291.0,542)">APAN-WK</text>
<rect x="1264.6" y="408.1" width="11.2" height="36.9" fill="#4c78a8"><title>APAN-WK MATG: 1</title></rect>
<rect x="1277.8" y="391.6" width="11.2" height="53.4" fill="#f58518"><title>APAN-WK ViTeGNN: 1.447</title></rect>
<rect x="1291.0" y="371.3" width="11.2" height="73.7" fill="#54a24b"><title>APAN-WK RTGA: 1.995</title></rect>
<rect x="1304.2" y="144.4" width="11.2" height="300.6" fill="#b279a2"><title>APAN-WK TempGNN: 8.141</title></rect>
<text x="1357.0" y="542" text-anchor="end" font-size="10" transform="rotate(-55 1357.0,542)">APAN-MC</text>
<rect x="1330.6" y="408.1" width="11.2" height="36.9" fill="#4c78a8"><title>APAN-MC MATG: 1</title></rect>
<rect x="1343.8" y="393.1" width="11.2" height="51.9" fill="#f58518"><title>APAN-MC ViTeGNN: 1.406</title></rect>
<rect x="1357.0" y="373.0" width="11.2" height="72.0" fill="#54a24b"><title>APAN-MC RTGA: 1.95</title></rect>
<rect x="1370.2" y="159.3" width="11.2" height="285.7" fill="#b279a2"><title>APAN-MC TempGNN: 7.739</title></rect>
<text x="1423.0" y="542" text-anchor="end" font-size="10" transform="rotate(-55 1423.0,542)">APAN-RT</text>
<rect x="1396.6" y="408.1" width="11.2" height="36.9" fill="#4c78a8"><title>APAN-RT MATG: 1</title></rect>
<rect x="1409.8" y="390.0" width="11.2" height="55.0" fill="#f58518"><title>APAN-RT ViTeGNN: 1.488</title></rect>
<rect x="1423.0" y="368.3" width="11.2" height="76.7" fill="#54a24b"><title>APAN-RT RTGA: 2.077</title></rect>
<rect x="1436.2" y="133.5" width="11.2" height="311.5" fill="#b279a2"><title>APAN-RT TempGNN: 8.437</title></rect>
<text x="1489.0" y="542" text-anchor="end" font-size="10" transform="rotate(-55 1489.0,542)">APAN-LM</text>
<rect x="1462.6" y="408.1" width="11.2" height="36.9" fill="#4c78a8"><title>APAN-LM MATG: 1</title></rect>
<rect x="1475.8" y="393.8" width="11.2" height="51.2" fill="#f58518"><title>APAN-LM ViTeGNN: 1.388</title></rect>
<rect x="1489.0" y="358.4" width="11.2" height="86.6" fill="#54a24b"><title>APAN-LM RTGA: 2.347</title></rect>
<rect x="1502.2" y="203.5" width="11.2" height="241.5" fill="#b279a2"><title>APAN-LM TempGNN: 6.543</title></rect>
<text x="1555.0" y="542" text-anchor="end" font-size="10" transform="rotate(-55 1555.0,542)">APAN-WT</text>
<rect x="1528.6" y="408.1" width="11.2" height="36.9" fill="#4c78a8"><title>APAN-WT MATG: 1</title></rect>
<rect x="1541.8" y="387.5" width="11.2" height="57.5" fill="#f58518"><title>APAN-WT ViTeGNN: 1.557</title></rect>
<rect x="1555.0" y="362.1" width="11.2" height="82.9" fill="#54a24b"><title>APAN-WT RTGA: 2.246</title></rect>
<rect x="1568.2" y="107.5" width="11.2" height="337.5" fill="#b279a2"><title>APAN-WT TempGNN: 9.14</title></rect>
<text x="1621.0" y="542" text-anchor="end" font-size="10" transform="rotate(-55 1621.0,542)">APAN-GT</text>
<rect x="1594.6" y="408.1" width="11.2" height="36.9" fill="#4c78a8"><title>APAN-GT MATG: 1</title></rect>
<rect x="1607.8" y="383.1" width="11.2" height="61.9" fill="#f58518"><title>APAN-GT ViTeGNN: 1.676</title></rect>
<rect x="1621.0" y="363.9" width="11.2" height="81.1" fill="#54a24b"><title>APAN-GT RTGA: 2.196</title></rect>
<rect x="1634.2" y="45.0" width="11.2" height="400.0" fill="#b279a2"><title>APAN-GT TempGNN: 10.83</title></rect>
<text x="1687.0" y="542" text-anchor="end" font-size="10" transform="rotate(-55 1687.0,542)">AVG</text>
<rect x="1660.6" y="408.1" width="11.2" height="36.9" fill="#4c78a8"><title>AVG MATG: 1</title></rect>
<rect x="1673.8" y="391.6" width="11.2" height="53.4" fill="#f58518"><title>AVG ViTeGNN: 1.447</title></rect>
<rect x="1687.0" y="369.0" width="11.2" height="76.0" fill="#54a24b"><title>AVG RTGA: 2.059</title></rect>
<rect x="1700.2" y="157.4" width="11.2" height="287.6" fill="#b279a2"><title>AVG TempGNN: 7.789</title></rect>
<rect x="1130.0" y="38.0" width="12" height="12" fill="#4c78a8"/>
<text x="1148.0" y="48.0" font-size="12">MATG</text>
<rect x="1320.0" y="38.0" width="12" height="12" fill="#f58518"/>
<text x="1338.0" y="48.0" font-size="12">ViTeGNN</text>
<rect x="1510.0" y="38.0" width="12" height="12" fill="#54a24b"/>
<text x="1528.0" y="48.0" font-size="12">RTGA</text>
<rect x="1130.0" y="60.0" width="12" height="12" fill="#b279a2"/>
<text x="1148.0" y="70.0" font-size="12">TempGNN</text>
</svg>
