<svg xmlns="http://www.w3.org/2000/svg" width="1750" height="560" viewBox="0 0 1750 560"><rect width="100%" height="100%" fill="white"/>
<text x="875.0" y="26" text-anchor="middle" font-size="18">Motivation: branch parallelism ratio</text>
<line x1="70" y1="445" x2="1730" y2="445" stroke="#333"/>
<line x1="70" y1="45" x2="70" y2="445" stroke="#333"/>
<line x1="70" y1="445.0" x2="1730" y2="445.0" stroke="#eee"/>
<text x="62" y="449.0" text-anchor="end" font-size="11">0.0</text>
<line x1="70" y1="365.0" x2="1730" y2="365.0" stroke="#eee"/>
<text x="62" y="369.0" text-anchor="end" font-size="11">17.4</text>
<line x1="70" y1="285.0" x2="1730" y2="285.0" stroke="#eee"/>
<text x="62" y="289.0" text-anchor="end" font-size="11">34.7</text>
<line x1="70" y1="205.0" x2="1730" y2="205.0" stroke="#eee"/>
<text x="62" y="209.0" text-anchor="end" font-size="11">52.1</text>
<line x1="70" y1="125.0" x2="1730" y2="125.0" stroke="#eee"/>
<text x="62" y="129.0" text-anchor="end" font-size="11">69.4</text>
<line x1="70" y1="45.0" x2="1730" y2="45.0" stroke="#eee"/>
<text x="62" y="49.0" text-anchor="end" font-size="11">86.8</text>
<text x="103.0" y="542" text-anchor="end" font-size="10" transform="rotate(-55 103.0,542)">JODIE-WK</text>
<rect x="86.5" y="107.3" width="28.1" height="337.7" fill="#4c78a8"><title>JODIE-WK BPR (%): 73.28</title></rect>
<text x="169.0" y="542" text-anchor="end" font-size="10" transform="rotate(-55 169.0,542)">JODIE-MC</text>
<rect x="152.5" y="70.8" width="28.1" height="374.2" fill="#4c78a8"><title>JODIE-MC BPR (%): 81.2</title></rect>
<text x="235.0" y="542" text-anchor="end" font-size="10" transform="rotate(-55 235.0,542)">JODIE-RT</text>
<rect x="218.5" y="94.5" width="28.1" height="350.5" fill="#4c78a8"><title>JODIE-RT BPR (%): 76.06</title></rect>
<text x="301.0" y="542" text-anchor="end" font-size="10" transform="rotate(-55 301.0,542)">JODIE-LM</text>
<rect x="284.5" y="89.0" width="28.1" height="356.0" fill="#4c78a8"><title>JODIE-LM BPR (%): 77.24</title></rect>
<text x="367.0" y="542" text-anchor="end" font-size="10" transform="rotate(-55 367.0,542)">JODIE-WT</text>
<rect x="350.5" y="76.2" width="28.1" height="368.8" fill="#4c78a8"><title>JODIE-WT BPR (%): 80.02</title></rect>
<text x="433.0" y="542" text-anchor="end" font-size="10" transform="rotate(-55 433.0,542)">JODIE-GT</text>
<rect x="416.5" y="63.5" width="28.1" height="381.5" fill="#4c78a8"><title>JODIE-GT BPR (%): 82.79</title></rect>
<text x="499.0" y="542" text-anchor="end" font-size="10" transform="rotate(-55 499.0,542)">TGN-WK</text>
<rect x="482.5" y="95.2" width="28.1" height="349.8" fill="#4c78a8"><title>TGN-WK BPR (%): 75.9</title></rect>
<text x="565.0" y="542" text-anchor="end" font-size="10" transform="rotate(-55 565.0,542)">TGN-MC</text>
<rect x="548.5" y="58.7" width="28.1" height="386.3" fill="#4c78a8"><title>TGN-MC BPR (%): 83.82</title></rect>
<text x="631.0" y="542" text-anchor="end" font-size="10" transform="rotate(-55 631.0,542)">TGN-RT</text>
<rect x="614.5" y="82.5" width="28.1" height="362.5" fill="#4c78a8"><title>TGN-RT BPR (%): 78.67</title></rect>
<text x="697.0" y="542" text-anchor="end" font-size="10" transform="rotate(-55 697.0,542)">TGN-LM</text>
<rect x="680.5" y="77.0" width="28.1" height="368.0" fill="#4c78a8"><title>TGN-LM BPR (%): 79.86</title></rect>
<text x="763.0" y="542" text-anchor="end" font-size="10" transform="rotate(-55 763.0,542)">TGN-WT</text>
<rect x="746.5" y="64.2" width="28.1" height="380.8" fill="#4c78a8"><title>TGN-WT BPR (%): 82.63</title></rect>
<text x="829.0" y="542" text-anchor="end" font-size="10" transform="rotate(-55 829.0,542)">TGN-GT</text>
<rect x="812.5" y="51.4" width="28.1" height="393.6" fill="#4c78a8"><title>TGN-GT BPR (%): 85.4</title></rect>
<text x="895.0" y="542" text-anchor="end" font-size="10" transform="rotate(-55 895.0,542)">TGAT-WK</text>
<rect x="878.5" y="88.8" width="28.1" height="356.2" fill="#4c78a8"><title>TGAT-WK BPR (%): 77.29</title></rect>
<text x="961.0" y="542" text-anchor="end" font-size="10" transform="rotate(-55 961.0,542)">TGAT-MC</text>
<rect x="944.5" y="52.3" width="28.1" height="392.7" fill="#4c78a8"><title>TGAT-MC BPR (%): 85.21</title></rect>
<text x="1027.0" y="542" text-anchor="end" font-size="10" transform="rotate(-55 1027.0,542)">TGAT-RT</text>
<rect x="1010.5" y="76.0" width="28.1" height="369.0" fill="#4c78a8"><title>TGAT-RT BPR (%): 80.06</title></rect>
<text x="1093.0" y="542" text-anchor="end" font-size="10" transform="rotate(-55 1093.0,542)">TGAT-LM</text>
<rect x="1076.5" y="70.6" width="28.1" height="374.4" fill="#4c78a8"><title>TGAT-LM BPR (%): 81.25</title></rect>
<text x="1159.0" y="542" text-anchor="end" font-size="10" transform="rotate(-55 1159.0,542)">TGAT-WT</text>
<rect x="1142.5" y="57.8" width="28.1" height="387.2" fill="#4c78a8"><title>TGAT-WT BPR (%): 84.02</title></rect>
<text x="1225.0" y="542" text-anchor="end" font-size="10" transform="rotate(-55 1225.0,542)">TGAT-GT</text>
<rect x="1208.5" y="45.0" width="28.1" height="400.0" fill="#4c78a8"><title>TGAT-GT BPR (%): 86.8</title></rect>
<text x="1291.0" y="542" text-anchor="end" font-size="10" transform="rotate(-55 1291.0,542)">APAN-WK</text>
<rect x="1274.5" y="108.9" width="28.1" height="336.1" fill="#4c78a8"><title>APAN-WK BPR (%): 72.93</title></rect>
<text x="1357.0" y="542" text-anchor="end" font-size="10" transform="rotate(-55 1357.0,542)">APAN-MC</text>
<rect x="1340.5" y="72.4" width="28.1" height="372.6" fill="#4c78a8"><title>APAN-MC BPR (%): 80.86</title></rect>
<text x="1423.0" y="542" text-anchor="end" font-size="10" transform="rotate(-55 1423.0,542)">APAN-RT</text>
<rect x="1406.5" y="96.1" width="28.1" height="348.9" fill="#4c78a8"><title>APAN-RT BPR (%): 75.71</title></rect>
<text x="1489.0" y="542" text-anchor="end" font-size="10" transform="rotate(-55 1489.0,542)">APAN-LM</text>
<rect x="1472.5" y="90.6" width="28.1" height="354.4" fill="#4c78a8"><title>APAN-LM BPR (%): 76.89</title></rect>
<text x="1555.0" y="542" text-anchor="end" font-size="10" transform="rotate(-55 1555.0,542)">APAN-WT</text>
<rect x="1538.5" y="77.9" width="28.1" height="367.1" fill="#4c78a8"><title>APAN-WT BPR (%): 79.67</title></rect>
<text x="1621.0" y="542" text-anchor="end" font-size="10" transform="rotate(-55 1621.0,542)">APAN-GT</text>
<rect x="1604.5" y="65.1" width="28.1" height="379.9" fill="#4c78a8"><title>APAN-GT BPR (%): 82.44</title></rect>
<text x="1687.0" y="542" text-anchor="end" font-size="10" transform="rotate(-55 1687.0,542)">AVG</text>
<rect x="1670.5" y="76.3" width="28.1" height="368.7" fill="#4c78a8"><title>AVG BPR (%): 80</title></rect>
<rect x="1130.0" y="38.0" width="12" height="12" fill="#4c78a8"/>
<text x="1148.0" y="48.0" font-size="12">BPR (%)</text>
</svg>
