<svg xmlns="http://www.w3.org/2000/svg" width="1750" height="560" viewBox="0 0 1750 560"><rect width="100%" height="100%" fill="white"/>
<text x="875.0" y="26" text-anchor="middle" font-size="18">Motivation: dependency-relevant useful-data ratio</text>
<line x1="70" y1="445" x2="1730" y2="445" stroke="#333"/>
<line x1="70" y1="45" x2="70" y2="445" stroke="#333"/>
<line x1="70" y1="445.0" x2="1730" y2="445.0" stroke="#eee"/>
<text x="62" y="449.0" text-anchor="end" font-size="11">0.0</text>
<line x1="70" y1="365.0" x2="1730" y2="365.0" stroke="#eee"/>
<text x="62" y="369.0" text-anchor="end" font-size="11">8.6</text>
<line x1="70" y1="285.0" x2="1730" y2="285.0" stroke="#eee"/>
<text x="62" y="289.0" text-anchor="end" font-size="11">17.3</text>
<line x1="70" y1="205.0" x2="1730" y2="205.0" stroke="#eee"/>
<text x="62" y="209.0" text-anchor="end" font-size="11">25.9</text>
<line x1="70" y1="125.0" x2="1730" y2="125.0" stroke="#eee"/>
<text x="62" y="129.0" text-anchor="end" font-size="11">34.6</text>
<line x1="70" y1="45.0" x2="1730" y2="45.0" stroke="#eee"/>
<text x="62" y="49.0" text-anchor="end" font-size="11">43.2</text>
<text x="103.0" y="542" text-anchor="end" font-size="10" transform="rotate(-55 103.0,542)">JODIE-WK</text>
<rect x="86.5" y="170.0" width="28.1" height="275.0" fill="#4c78a8"><title>JODIE-WK Useful-data ratio (%): 29.7</title></rect>
<text x="169.0" y="542" text-anchor="end" font-size="10" transform="rotate(-55 169.0,542)">JODIE-MC</text>
<rect x="152.5" y="145.0" width="28.1" height="300.0" fill="#4c78a8"><title>JODIE-MC Useful-data ratio (%): 32.4</title></rect>
<text x="235.0" y="542" text-anchor="end" font-size="10" transform="rotate(-55 235.0,542)">JODIE-RT</text>
<rect x="218.5" y="185.7" width="28.1" height="259.3" fill="#4c78a8"><title>JODIE-RT Useful-data ratio (%): 28</title></rect>
<text x="301.0" y="542" text-anchor="end" font-size="10" transform="rotate(-55 301.0,542)">JODIE-LM</text>
<rect x="284.5" y="202.4" width="28.1" height="242.6" fill="#4c78a8"><title>JODIE-LM Useful-data ratio (%): 26.2</title></rect>
<text x="367.0" y="542" text-anchor="end" font-size="10" transform="rotate(-55 367.0,542)">JODIE-WT</text>
<rect x="350.5" y="118.1" width="28.1" height="326.9" fill="#4c78a8"><title>JODIE-WT Useful-data ratio (%): 35.3</title></rect>
<text x="433.0" y="542" text-anchor="end" font-size="10" transform="rotate(-55 433.0,542)">JODIE-GT</text>
<rect x="416.5" y="93.1" width="28.1" height="351.9" fill="#4c78a8"><title>JODIE-GT Useful-data ratio (%): 38</title></rect>
<text x="499.0" y="542" text-anchor="end" font-size="10" transform="rotate(-55 499.0,542)">TGN-WK</text>
<rect x="482.5" y="126.5" width="28.1" height="318.5" fill="#4c78a8"><title>TGN-WK Useful-data ratio (%): 34.4</title></rect>
<text x="565.0" y="542" text-anchor="end" font-size="10" transform="rotate(-55 565.0,542)">TGN-MC</text>
<rect x="548.5" y="101.5" width="28.1" height="343.5" fill="#4c78a8"><title>TGN-MC Useful-data ratio (%): 37.1</title></rect>
<text x="631.0" y="542" text-anchor="end" font-size="10" transform="rotate(-55 631.0,542)">TGN-RT</text>
<rect x="614.5" y="142.2" width="28.1" height="302.8" fill="#4c78a8"><title>TGN-RT Useful-data ratio (%): 32.7</title></rect>
<text x="697.0" y="542" text-anchor="end" font-size="10" transform="rotate(-55 697.0,542)">TGN-LM</text>
<rect x="680.5" y="158.9" width="28.1" height="286.1" fill="#4c78a8"><title>TGN-LM Useful-data ratio (%): 30.9</title></rect>
<text x="763.0" y="542" text-anchor="end" font-size="10" transform="rotate(-55 763.0,542)">TGN-WT</text>
<rect x="746.5" y="74.6" width="28.1" height="370.4" fill="#4c78a8"><title>TGN-WT Useful-data ratio (%): 40</title></rect>
<text x="829.0" y="542" text-anchor="end" font-size="10" transform="rotate(-55 829.0,542)">TGN-GT</text>
<rect x="812.5" y="49.6" width="28.1" height="395.4" fill="#4c78a8"><title>TGN-GT Useful-data ratio (%): 42.7</title></rect>
<text x="895.0" y="542" text-anchor="end" font-size="10" transform="rotate(-55 895.0,542)">TGAT-WK</text>
<rect x="878.5" y="132.0" width="28.1" height="313.0" fill="#4c78a8"><title>TGAT-WK Useful-data ratio (%): 33.8</title></rect>
<text x="961.0" y="542" text-anchor="end" font-size="10" transform="rotate(-55 961.0,542)">TGAT-MC</text>
<rect x="944.5" y="107.0" width="28.1" height="338.0" fill="#4c78a8"><title>TGAT-MC Useful-data ratio (%): 36.5</title></rect>
<text x="1027.0" y="542" text-anchor="end" font-size="10" transform="rotate(-55 1027.0,542)">TGAT-RT</text>
<rect x="1010.5" y="147.8" width="28.1" height="297.2" fill="#4c78a8"><title>TGAT-RT Useful-data ratio (%): 32.1</title></rect>
<text x="1093.0" y="542" text-anchor="end" font-size="10" transform="rotate(-55 1093.0,542)">TGAT-LM</text>
<rect x="1076.5" y="164.4" width="28.1" height="280.6" fill="#4c78a8"><title>TGAT-LM Useful-data ratio (%): 30.3</title></rect>
<text x="1159.0" y="542" text-anchor="end" font-size="10" transform="rotate(-55 1159.0,542)">TGAT-WT</text>
<rect x="1142.5" y="80.2" width="28.1" height="364.8" fill="#4c78a8"><title>TGAT-WT Useful-data ratio (%): 39.4</title></rect>
<text x="1225.0" y="542" text-anchor="end" font-size="10" transform="rotate(-55 1225.0,542)">TGAT-GT</text>
<rect x="1208.5" y="55.2" width="28.1" height="389.8" fill="#4c78a8"><title>TGAT-GT Useful-data ratio (%): 42.1</title></rect>
<text x="1291.0" y="542" text-anchor="end" font-size="10" transform="rotate(-55 1291.0,542)">APAN-WK</text>
<rect x="1274.5" y="121.9" width="28.1" height="323.1" fill="#4c78a8"><title>APAN-WK Useful-data ratio (%): 34.9</title></rect>
<text x="1357.0" y="542" text-anchor="end" font-size="10" transform="rotate(-55 1357.0,542)">APAN-MC</text>
<rect x="1340.5" y="96.9" width="28.1" height="348.1" fill="#4c78a8"><title>APAN-MC Useful-data ratio (%): 37.6</title></rect>
<text x="1423.0" y="542" text-anchor="end" font-size="10" transform="rotate(-55 1423.0,542)">APAN-RT</text>
<rect x="1406.5" y="137.6" width="28.1" height="307.4" fill="#4c78a8"><title>APAN-RT Useful-data ratio (%): 33.2</title></rect>
<text x="1489.0" y="542" text-anchor="end" font-size="10" transform="rotate(-55 1489.0,542)">APAN-LM</text>
<rect x="1472.5" y="154.3" width="28.1" height="290.7" fill="#4c78a8"><title>APAN-LM Useful-data ratio (%): 31.4</title></rect>
<text x="1555.0" y="542" text-anchor="end" font-size="10" transform="rotate(-55 1555.0,542)">APAN-WT</text>
<rect x="1538.5" y="70.0" width="28.1" height="375.0" fill="#4c78a8"><title>APAN-WT Useful-data ratio (%): 40.5</title></rect>
<text x="1621.0" y="542" text-anchor="end" font-size="10" transform="rotate(-55 1621.0,542)">APAN-GT</text>
<rect x="1604.5" y="45.0" width="28.1" height="400.0" fill="#4c78a8"><title>APAN-GT Useful-data ratio (%): 43.2</title></rect>
<text x="1687.0" y="542" text-anchor="end" font-size="10" transform="rotate(-55 1687.0,542)">AVG</text>
<rect x="1670.5" y="120.0" width="28.1" height="325.0" fill="#4c78a8"><title>AVG Useful-data ratio (%): 35.1</title></rect>
<rect x="1130.0" y="38.0" width="12" height="12" fill="#4c78a8"/>
<text x="1148.0" y="48.0" font-size="12">Useful-data ratio (%)</text>
</svg>
